<svg width="14" height="14" viewBox="0 0 14 14" fill="none" xmlns="http://www.w3.org/2000/svg">
<path d="M6.99998 0.333332C10.682 0.333332 13.6666 3.31867 13.6666 7C13.6666 10.6813 10.682 13.6667 6.99998 13.6667C3.31798 13.6667 0.333313 10.6813 0.333313 7C0.333313 3.31867 3.31798 0.333332 6.99998 0.333332ZM7.00118 9.00247C6.63351 9.00247 6.33538 9.30053 6.33538 9.66827C6.33538 10.0359 6.63351 10.334 7.00118 10.334C7.36885 10.334 7.66698 10.0359 7.66698 9.66827C7.66698 9.30053 7.36885 9.00247 7.00118 9.00247ZM6.99971 3.66667C6.65785 3.66679 6.37618 3.92425 6.33778 4.25583L6.33331 4.33357L6.33451 7.66747L6.33905 7.74527C6.37765 8.0768 6.65951 8.33407 7.00145 8.33393C7.34331 8.3338 7.62498 8.07633 7.66338 7.74473L7.66785 7.667L7.66665 4.33309L7.66211 4.25535C7.62351 3.9238 7.34165 3.66655 6.99971 3.66667Z" fill="#007AFF"/>
</svg>
