<svg width="14" height="14" viewBox="0 0 14 14" fill="none" xmlns="http://www.w3.org/2000/svg">
<path d="M6.2728 0.854772C6.966 0.470832 7.83133 0.693926 8.25653 1.34827L8.31173 1.44015L13.4844 10.779C13.6076 11.0014 13.6723 11.2515 13.6723 11.5058C13.6723 12.2997 13.0555 12.9495 12.2749 13.0023L12.1723 13.0058H1.8284C1.57419 13.0058 1.32415 12.9412 1.10177 12.8181C0.408539 12.4342 0.138512 11.5823 0.467552 10.8747L0.516146 10.7791L5.68733 1.44031C5.82367 1.19407 6.0266 0.991159 6.2728 0.854772ZM7.0008 9.66787C6.63307 9.66787 6.335 9.96593 6.335 10.3336C6.335 10.7013 6.63307 10.9994 7.0008 10.9994C7.36847 10.9994 7.66653 10.7013 7.66653 10.3336C7.66653 9.96593 7.36847 9.66787 7.0008 9.66787ZM6.99933 4.33204C6.65747 4.33217 6.37573 4.58963 6.3374 4.9212L6.33293 4.99895L6.33413 8.33287L6.3386 8.4106C6.37727 8.74213 6.65913 8.9994 7.001 8.99927C7.34293 8.9992 7.6246 8.74173 7.663 8.41013L7.66747 8.3324L7.66627 4.99847L7.66173 4.92072C7.62313 4.58917 7.3412 4.33192 6.99933 4.33204Z" fill="#FF9500"/>
</svg>
