<svg width="14" height="14" viewBox="0 0 14 14" fill="none" xmlns="http://www.w3.org/2000/svg">
<path d="M6.99998 0.333328C10.6818 0.333328 13.6666 3.31809 13.6666 7C13.6666 10.6819 10.6818 13.6667 6.99998 13.6667C3.31808 13.6667 0.333313 10.6819 0.333313 7C0.333313 3.31809 3.31808 0.333328 6.99998 0.333328ZM9.35351 4.64644L9.29745 4.59803C9.12345 4.46893 8.88465 4.46734 8.70905 4.59325L8.64645 4.64644L6.99998 6.29266L5.35353 4.64644L5.29745 4.59803C5.12346 4.46893 4.88465 4.46734 4.70906 4.59325L4.64643 4.64644L4.59801 4.70252C4.46891 4.87651 4.46732 5.11532 4.59323 5.29092L4.64643 5.35355L6.29265 7L4.64643 8.64646L4.59801 8.70253C4.46891 8.87653 4.46732 9.11533 4.59323 9.29093L4.64643 9.35353L4.70251 9.40193C4.8765 9.53106 5.11531 9.53266 5.2909 9.40673L5.35353 9.35353L6.99998 7.70733L8.64645 9.35353L8.70251 9.40193C8.87651 9.53106 9.11531 9.53266 9.29091 9.40673L9.35351 9.35353L9.40191 9.29746C9.53105 9.12346 9.53265 8.88466 9.40671 8.70906L9.35351 8.64646L7.70731 7L9.35351 5.35355L9.40191 5.29747C9.53105 5.12348 9.53265 4.88467 9.40671 4.70907L9.35351 4.64644L9.29745 4.59803L9.35351 4.64644Z" fill="#FF3B30"/>
</svg>
