<svg width="24" height="24" viewBox="0 0 24 24" fill="none" xmlns="http://www.w3.org/2000/svg">
<path fill-rule="evenodd" clip-rule="evenodd" d="M12.2722 19.0091V11.9396L14.9726 10.6289V12.4779C14.9726 12.6867 15.1436 12.8577 15.3526 12.8577C15.5614 12.8577 15.7324 12.6867 15.7324 12.4779V10.2585L18.0436 9.13779V16.2072L12.2722 19.0091ZM5.75978 9.15045L11.5122 11.9396V19.0091L5.75978 16.22V9.15045ZM11.8922 11.278L6.24424 8.53951L8.94163 7.23187L14.5895 9.97054L11.8922 11.278ZM11.8922 5.80088L17.5401 8.53951L15.4601 9.54943L9.81225 6.81097L11.8922 5.80088ZM18.7653 8.36855C18.7147 8.26079 18.6165 8.18801 18.5089 8.16589L12.0599 5.03802C11.9556 4.98733 11.8321 4.98733 11.7275 5.03802L5.21532 8.19435C5.08857 8.25446 5.00633 8.38121 5 8.5236V16.4606C5 16.6062 5.08223 16.7392 5.21532 16.8024L11.7275 19.9589C11.7433 19.9652 11.7529 19.9683 11.7623 19.9746C11.7656 19.9746 11.7687 19.9779 11.775 19.9779L11.8036 19.9873C11.8067 19.9873 11.8098 19.9906 11.813 19.9906C11.8224 19.9937 11.8351 19.9937 11.8447 19.9969H11.8541C11.8668 19.9969 11.8828 20 11.8953 20C11.908 20 11.9239 20 11.9365 19.9969H11.946C11.9556 19.9969 11.9681 19.9937 11.9777 19.9906C11.9807 19.9906 11.984 19.9873 11.9871 19.9873L12.0157 19.9779C12.0188 19.9779 12.022 19.9746 12.0284 19.9746C12.0378 19.9715 12.0472 19.9683 12.0568 19.962L18.5944 16.793C18.7242 16.7296 18.8097 16.5967 18.8097 16.451V8.54588C18.8034 8.54264 18.8034 8.53951 18.8034 8.53626C18.8034 8.4794 18.7907 8.42233 18.7653 8.36855Z" fill="#959494"/>
<path d="M12.2722 19.0091H12.0222V19.4084L12.3813 19.234L12.2722 19.0091ZM12.2722 11.9396L12.163 11.7147L12.0222 11.7831V11.9396H12.2722ZM14.9726 10.6289H15.2226V10.2297L14.8634 10.404L14.9726 10.6289ZM15.7324 10.2585L15.6233 10.0336L15.4824 10.1019V10.2585H15.7324ZM18.0436 9.13779H18.2936V8.73872L17.9345 8.91284L18.0436 9.13779ZM18.0436 16.2072L18.1528 16.4321L18.2936 16.3638V16.2072H18.0436ZM5.75978 9.15045L5.86885 8.9255L5.50978 8.7514V9.15045H5.75978ZM11.5122 11.9396H11.7622V11.783L11.6213 11.7147L11.5122 11.9396ZM11.5122 19.0091L11.4032 19.2341L11.7622 19.4082V19.0091H11.5122ZM5.75978 16.22H5.50978V16.3766L5.65071 16.4449L5.75978 16.22ZM11.8922 11.278L11.7831 11.503L11.8922 11.5558L12.0012 11.503L11.8922 11.278ZM6.24424 8.53951L6.13518 8.31455L5.67118 8.53949L6.13517 8.76446L6.24424 8.53951ZM8.94163 7.23187L9.05071 7.00692L8.94164 6.95404L8.83257 7.00691L8.94163 7.23187ZM14.5895 9.97054L14.6986 10.1955L15.1626 9.97058L14.6986 9.74559L14.5895 9.97054ZM11.8922 5.80088L12.0012 5.57593L11.8921 5.523L11.783 5.576L11.8922 5.80088ZM17.5401 8.53951L17.6493 8.7644L18.1128 8.53936L17.6492 8.31456L17.5401 8.53951ZM15.4601 9.54943L15.3511 9.77438L15.4602 9.82731L15.5693 9.77432L15.4601 9.54943ZM9.81225 6.81097L9.70304 6.58608L9.2396 6.81114L9.70318 7.03592L9.81225 6.81097ZM18.7653 8.36855L18.5391 8.47497L18.5392 8.47506L18.7653 8.36855ZM18.5089 8.16589L18.3998 8.39083L18.4279 8.40448L18.4585 8.41077L18.5089 8.16589ZM12.0599 5.03802L11.9506 5.26288L11.9508 5.26296L12.0599 5.03802ZM11.7275 5.03802L11.8366 5.26299L11.8366 5.26296L11.7275 5.03802ZM5.21532 8.19435L5.32245 8.42024L5.32436 8.41932L5.21532 8.19435ZM5 8.5236L4.75 8.51248V8.5236H5ZM5.21532 16.8024L5.32437 16.5774L5.32256 16.5766L5.21532 16.8024ZM11.7275 19.9589L11.6185 20.1838L11.6263 20.1876L11.6343 20.1908L11.7275 19.9589ZM11.7623 19.9746L11.6229 20.1821L11.6861 20.2246H11.7623V19.9746ZM11.775 19.9779L11.8535 19.7405L11.8152 19.7279H11.775V19.9779ZM11.8036 19.9873L11.7251 20.2247L11.7634 20.2373H11.8036V19.9873ZM11.813 19.9906L11.8909 19.753L11.8529 19.7406H11.813V19.9906ZM11.8447 19.9969L11.7645 20.2337L11.8035 20.2469H11.8447V19.9969ZM11.9365 19.9969V19.7469H11.9065L11.8773 19.754L11.9365 19.9969ZM11.9777 19.9906V19.7406H11.9384L11.901 19.7526L11.9777 19.9906ZM11.9871 19.9873V20.2373H12.0274L12.0657 20.2247L11.9871 19.9873ZM12.0157 19.9779V19.7279H11.9754L11.9371 19.7405L12.0157 19.9779ZM12.0284 19.9746V20.2246H12.0683L12.1062 20.2122L12.0284 19.9746ZM12.0568 19.962L11.9478 19.737L11.9328 19.7443L11.9189 19.7534L12.0568 19.962ZM18.5944 16.793L18.7034 17.0179L18.7041 17.0176L18.5944 16.793ZM18.8097 8.54588H19.0597V8.39309L18.9237 8.3234L18.8097 8.54588ZM12.5222 19.0091V11.9396H12.0222V19.0091H12.5222ZM12.3813 12.1645L15.0818 10.8538L14.8634 10.404L12.163 11.7147L12.3813 12.1645ZM14.7226 10.6289V12.4779H15.2226V10.6289H14.7226ZM14.7226 12.4779C14.7226 12.8248 15.0055 13.1077 15.3526 13.1077V12.6077C15.2816 12.6077 15.2226 12.5486 15.2226 12.4779H14.7226ZM15.3526 13.1077C15.6995 13.1077 15.9824 12.8248 15.9824 12.4779H15.4824C15.4824 12.5487 15.4233 12.6077 15.3526 12.6077V13.1077ZM15.9824 12.4779V10.2585H15.4824V12.4779H15.9824ZM15.8415 10.4835L18.1527 9.36273L17.9345 8.91284L15.6233 10.0336L15.8415 10.4835ZM17.7936 9.13779V16.2072H18.2936V9.13779H17.7936ZM17.9344 15.9823L12.163 18.7842L12.3813 19.234L18.1528 16.4321L17.9344 15.9823ZM5.65071 9.3754L11.4032 12.1646L11.6213 11.7147L5.86885 8.9255L5.65071 9.3754ZM11.2622 11.9396V19.0091H11.7622V11.9396H11.2622ZM11.6213 18.7842L5.86885 15.995L5.65071 16.4449L11.4032 19.2341L11.6213 18.7842ZM6.00978 16.22V9.15045H5.50978V16.22H6.00978ZM12.0012 11.0531L6.35331 8.31456L6.13517 8.76446L11.7831 11.503L12.0012 11.0531ZM6.3533 8.76447L9.05068 7.45683L8.83257 7.00691L6.13518 8.31455L6.3533 8.76447ZM8.83255 7.45682L14.4804 10.1955L14.6986 9.74559L9.05071 7.00692L8.83255 7.45682ZM14.4805 9.74557L11.7831 11.0531L12.0012 11.503L14.6986 10.1955L14.4805 9.74557ZM11.7831 6.02583L17.431 8.76446L17.6492 8.31456L12.0012 5.57593L11.7831 6.02583ZM17.4309 8.31462L15.3509 9.32454L15.5693 9.77432L17.6493 8.7644L17.4309 8.31462ZM15.5692 9.32448L9.92132 6.58601L9.70318 7.03592L15.3511 9.77438L15.5692 9.32448ZM9.92146 7.03585L12.0014 6.02577L11.783 5.576L9.70304 6.58608L9.92146 7.03585ZM18.9916 8.26213C18.9063 8.08087 18.7416 7.9585 18.5592 7.92102L18.4585 8.41077C18.4914 8.41753 18.523 8.44071 18.5391 8.47497L18.9916 8.26213ZM18.618 7.94095L12.169 4.81308L11.9508 5.26296L18.3998 8.39083L18.618 7.94095ZM12.1692 4.81317C11.9958 4.72891 11.7918 4.729 11.6184 4.81308L11.8366 5.26296C11.8723 5.24565 11.9154 5.24574 11.9506 5.26288L12.1692 4.81317ZM11.6185 4.81305L5.10628 7.96938L5.32436 8.41932L11.8366 5.26299L11.6185 4.81305ZM5.1082 7.96846C4.89499 8.06957 4.76055 8.28078 4.75025 8.51249L5.24975 8.53471C5.25211 8.48165 5.28214 8.43935 5.32245 8.42023L5.1082 7.96846ZM4.75 8.5236V16.4606H5.25V8.5236H4.75ZM4.75 16.4606C4.75 16.7012 4.88644 16.923 5.10808 17.0282L5.32256 16.5766C5.27803 16.5554 5.25 16.5112 5.25 16.4606H4.75ZM5.10628 17.0274L11.6185 20.1838L11.8366 19.7339L5.32436 16.5774L5.10628 17.0274ZM11.6343 20.1908C11.6396 20.193 11.6447 20.1949 11.6471 20.1959C11.6503 20.1972 11.6504 20.1972 11.6497 20.1969C11.6471 20.1958 11.6361 20.191 11.6229 20.1821L11.9018 19.7672C11.8791 19.7519 11.8586 19.7424 11.8449 19.7366C11.8387 19.7339 11.8328 19.7317 11.8295 19.7304C11.8254 19.7288 11.8234 19.728 11.8208 19.7269L11.6343 20.1908ZM11.7623 20.2246C11.7418 20.2246 11.7241 20.222 11.7103 20.219C11.6969 20.2161 11.6863 20.2126 11.6801 20.2103C11.674 20.2082 11.6694 20.2062 11.6689 20.206C11.6688 20.2059 11.668 20.2056 11.669 20.206C11.6695 20.2063 11.6707 20.2068 11.6723 20.2074C11.6785 20.21 11.6924 20.2155 11.7108 20.2201C11.7298 20.2248 11.7514 20.2279 11.775 20.2279V19.7279C11.7954 19.7279 11.8142 19.7306 11.8308 19.7347C11.8467 19.7386 11.8585 19.7434 11.8628 19.7451C11.8638 19.7455 11.8645 19.7459 11.8646 19.7459C11.8651 19.7461 11.8639 19.7456 11.8633 19.7453C11.8618 19.7447 11.8564 19.7424 11.8495 19.7399C11.8424 19.7374 11.831 19.7336 11.8168 19.7305C11.8022 19.7273 11.7837 19.7246 11.7623 19.7246V20.2246ZM11.6965 20.2152L11.7251 20.2247L11.8821 19.75L11.8535 19.7405L11.6965 20.2152ZM11.8036 20.2373C11.7821 20.2373 11.7635 20.2345 11.7488 20.2311C11.7342 20.2278 11.7225 20.2237 11.7145 20.2205C11.7065 20.2174 11.7003 20.2144 11.6972 20.2129C11.6944 20.2115 11.6919 20.2102 11.6931 20.2108C11.6932 20.2109 11.6966 20.2127 11.7007 20.2147C11.705 20.2167 11.7121 20.2201 11.7212 20.2235C11.7302 20.227 11.7427 20.2312 11.7578 20.2345C11.7731 20.2379 11.7917 20.2406 11.813 20.2406V19.7406C11.8335 19.7406 11.8514 19.7431 11.8658 19.7463C11.8801 19.7495 11.8918 19.7534 11.9001 19.7566C11.9083 19.7598 11.9147 19.7628 11.9182 19.7645C11.9215 19.766 11.9241 19.7674 11.9234 19.7671C11.9234 19.7671 11.9234 19.7671 11.9234 19.767C11.9233 19.767 11.9233 19.767 11.9233 19.767C11.9232 19.7669 11.9231 19.7669 11.9229 19.7668C11.9226 19.7667 11.9222 19.7664 11.9217 19.7662C11.9207 19.7656 11.919 19.7648 11.917 19.7638C11.9131 19.7619 11.9062 19.7586 11.8974 19.7552C11.8885 19.7517 11.8761 19.7473 11.8608 19.7438C11.8453 19.7403 11.8259 19.7373 11.8036 19.7373V20.2373ZM11.7352 20.2281C11.7525 20.2338 11.7673 20.2368 11.7759 20.2384C11.7842 20.2399 11.792 20.241 11.7935 20.2412C11.797 20.2417 11.7944 20.2414 11.7909 20.2407C11.7871 20.24 11.7773 20.238 11.7645 20.2337L11.925 19.7601C11.9074 19.7542 11.8923 19.751 11.8832 19.7493C11.8743 19.7476 11.8662 19.7465 11.8641 19.7462C11.86 19.7456 11.8624 19.7459 11.8653 19.7465C11.8686 19.747 11.8783 19.7489 11.8909 19.753L11.7352 20.2281ZM11.8447 20.2469H11.8541V19.7469H11.8447V20.2469ZM11.8541 20.2469C11.8478 20.2469 11.8436 20.2465 11.8434 20.2465C11.8433 20.2465 11.8438 20.2466 11.8479 20.247C11.8508 20.2473 11.8574 20.2481 11.8644 20.2486C11.8715 20.2492 11.8825 20.25 11.8953 20.25V19.75C11.9018 19.75 11.9061 19.7504 11.9063 19.7504C11.9063 19.7504 11.9059 19.7504 11.9017 19.7499C11.8987 19.7496 11.892 19.7488 11.8849 19.7483C11.8778 19.7477 11.8669 19.7469 11.8541 19.7469V20.2469ZM11.8953 20.25C11.8999 20.25 11.9482 20.2514 11.9957 20.2398L11.8773 19.754C11.8855 19.752 11.8919 19.7511 11.8955 19.7506C11.8992 19.7502 11.9017 19.75 11.9024 19.75C11.9032 19.7499 11.9032 19.75 11.9018 19.75C11.9003 19.75 11.8987 19.75 11.8953 19.75V20.25ZM11.9365 20.2469H11.946V19.7469H11.9365V20.2469ZM11.946 20.2469C11.9975 20.2469 12.0419 20.2325 12.0543 20.2285L11.901 19.7526C11.9015 19.7525 11.9042 19.7516 11.9088 19.7506C11.9113 19.75 11.9154 19.7492 11.9209 19.7485C11.9261 19.7478 11.9348 19.7469 11.946 19.7469V20.2469ZM11.9777 20.2406C11.9999 20.2406 12.0191 20.2377 12.0342 20.2342C12.0493 20.2308 12.0615 20.2266 12.0701 20.2233C12.0787 20.2199 12.0855 20.2168 12.0894 20.2149C12.0915 20.2139 12.0931 20.2131 12.0942 20.2126C12.0952 20.2121 12.0961 20.2116 12.0961 20.2116C12.0969 20.2112 12.0945 20.2124 12.0915 20.2138C12.0883 20.2154 12.0823 20.2182 12.0744 20.2212C12.0665 20.2243 12.055 20.2282 12.0409 20.2314C12.0266 20.2346 12.0083 20.2373 11.9871 20.2373V19.7373C11.9651 19.7373 11.9461 19.7402 11.931 19.7436C11.916 19.747 11.9038 19.7511 11.8951 19.7545C11.8864 19.7578 11.8796 19.761 11.8756 19.7629C11.8735 19.7639 11.8718 19.7647 11.8707 19.7653C11.8696 19.7658 11.8687 19.7663 11.8686 19.7663C11.8677 19.7668 11.8701 19.7656 11.8729 19.7642C11.876 19.7627 11.882 19.7599 11.8899 19.7569C11.8977 19.7539 11.9092 19.7499 11.9234 19.7467C11.9377 19.7434 11.9562 19.7406 11.9777 19.7406V20.2406ZM12.0657 20.2247L12.0942 20.2152L11.9371 19.7405L11.9085 19.75L12.0657 20.2247ZM12.0157 20.2279C12.038 20.2279 12.057 20.2249 12.0714 20.2217C12.0856 20.2185 12.0967 20.2148 12.1034 20.2124C12.1099 20.21 12.1151 20.2078 12.1162 20.2074C12.1166 20.2072 12.1169 20.207 12.117 20.207C12.1172 20.2069 12.1172 20.2069 12.1171 20.207C12.1169 20.207 12.1161 20.2074 12.115 20.2078C12.1105 20.2096 12.0989 20.2142 12.0833 20.218C12.0671 20.222 12.0486 20.2246 12.0284 20.2246V19.7246C12.005 19.7246 11.9836 19.7277 11.965 19.7322C11.9469 19.7367 11.9331 19.7421 11.9266 19.7447C11.925 19.7453 11.9237 19.7459 11.923 19.7462C11.9227 19.7463 11.9224 19.7464 11.9224 19.7464C11.9223 19.7465 11.9224 19.7464 11.9226 19.7463C11.9228 19.7463 11.9271 19.7444 11.9327 19.7424C11.9386 19.7403 11.9489 19.7368 11.9623 19.7338C11.9759 19.7307 11.9941 19.7279 12.0157 19.7279V20.2279ZM12.1062 20.2122C12.1169 20.2087 12.1547 20.197 12.1947 20.1705L11.9189 19.7534C11.9398 19.7396 11.9587 19.7344 11.9505 19.7371L12.1062 20.2122ZM12.1658 20.1869L18.7034 17.0179L18.4853 16.568L11.9478 19.737L12.1658 20.1869ZM18.7041 17.0176C18.9175 16.9134 19.0597 16.6947 19.0597 16.451H18.5597C18.5597 16.4986 18.5309 16.5458 18.4847 16.5683L18.7041 17.0176ZM19.0597 16.451V8.54588H18.5597V16.451H19.0597ZM18.9237 8.3234C18.9479 8.33576 18.9966 8.36652 19.028 8.42981C19.057 8.48815 19.0534 8.54445 19.0534 8.53626H18.5534C18.5534 8.53631 18.5534 8.53747 18.5534 8.53879C18.5534 8.54022 18.5534 8.54245 18.5535 8.54517C18.5537 8.55051 18.5541 8.55902 18.5554 8.56938C18.5581 8.59116 18.5645 8.62059 18.5803 8.65234C18.6133 8.71881 18.6652 8.75275 18.6957 8.76836L18.9237 8.3234ZM19.0534 8.53626C19.0534 8.44192 19.0323 8.34854 18.9915 8.26204L18.5392 8.47506C18.5491 8.49612 18.5534 8.51687 18.5534 8.53626H19.0534Z" fill="#959494"/>
</svg>
