<svg width="24" height="24" viewBox="0 0 24 24" fill="none" xmlns="http://www.w3.org/2000/svg">
<path d="M15.3398 14.9824L16.2773 14.0449C16.3555 13.9668 16.4434 13.9473 16.541 13.9863C16.6387 14.0254 16.6875 14.1035 16.6875 14.2207V18.4688C16.6875 18.8594 16.5508 19.1914 16.2773 19.4648C16.0039 19.7383 15.6719 19.875 15.2812 19.875H4.96875C4.57812 19.875 4.24609 19.7383 3.97266 19.4648C3.69922 19.1914 3.5625 18.8594 3.5625 18.4688V8.15625C3.5625 7.76563 3.69922 7.43359 3.97266 7.16016C4.24609 6.88672 4.57812 6.75 4.96875 6.75H12.9961C13.0938 6.75 13.1621 6.79883 13.2012 6.89648C13.2402 6.99414 13.2207 7.08203 13.1426 7.16016L12.2051 8.09766C12.166 8.13672 12.1172 8.15625 12.0586 8.15625H4.96875V18.4688H15.2812V15.1289C15.2812 15.0703 15.3008 15.0215 15.3398 14.9824ZM19.9395 9.06445L12.2344 16.7695L9.59766 17.0625C9.20703 17.1016 8.875 16.9844 8.60156 16.7109C8.32812 16.4375 8.21094 16.1055 8.25 15.7148L8.54297 13.0781L16.248 5.37305C16.5801 5.04102 16.9805 4.875 17.4492 4.875C17.918 4.875 18.3281 5.04102 18.6797 5.37305L19.9395 6.63281C20.2715 6.96484 20.4375 7.375 20.4375 7.86328C20.4375 8.33203 20.2715 8.73242 19.9395 9.06445ZM17.0391 9.97266L15.3398 8.27344L9.89062 13.7227L9.68555 15.627L11.5898 15.4219L17.0391 9.97266ZM18.9434 7.62891L17.6836 6.36914C17.5273 6.23242 17.3809 6.23242 17.2441 6.36914L16.3359 7.27734L18.0352 8.97656L18.9434 8.06836C19.0801 7.93164 19.0801 7.78516 18.9434 7.62891Z" fill="#959494"/>
</svg>
