<svg width="24" height="24" viewBox="0 0 24 24" fill="none" xmlns="http://www.w3.org/2000/svg">
<path fill-rule="evenodd" clip-rule="evenodd" d="M11.7203 9.08768C12.5836 9.08768 13.2864 9.78954 13.2864 10.6538C13.2864 11.5171 12.5836 12.219 11.7203 12.219C10.8569 12.219 10.1541 11.5171 10.1541 10.6538C10.1541 9.78954 10.8569 9.08768 11.7203 9.08768ZM11.7203 13.8682C13.4927 13.8682 14.9347 12.4262 14.9347 10.6538C14.9347 8.88141 13.4927 7.43848 11.7203 7.43848C9.94786 7.43848 8.50586 8.88141 8.50586 10.6538C8.50586 12.4262 9.94786 13.8682 11.7203 13.8682Z" fill="#959494"/>
<path fill-rule="evenodd" clip-rule="evenodd" d="M11.7202 5.58186C14.5165 5.58186 16.792 7.85733 16.792 10.6536V10.8337C16.792 13.7513 13.0614 17.3307 11.7202 18.5235C10.379 17.3297 6.64851 13.7495 6.64851 10.8337V10.6536C6.64851 7.85733 8.92398 5.58186 11.7202 5.58186ZM11.7202 3.93359C8.01491 3.93359 5.00024 6.94826 5.00024 10.6536V10.8337C5.00024 12.7023 6.06051 14.8667 8.15118 17.2672C9.55678 18.8809 10.9344 20.0308 11.2013 20.2501L11.7202 20.6692L12.2382 20.2501C12.3008 20.1997 13.7894 18.9892 15.2893 17.2672C17.38 14.8667 18.4402 12.7023 18.4402 10.8337V10.6536C18.4402 6.94826 15.4256 3.93359 11.7202 3.93359Z" fill="#959494"/>
</svg>
