<svg width="24" height="24" viewBox="0 0 24 24" fill="none" xmlns="http://www.w3.org/2000/svg">
<g clip-path="url(#clip0_5263_357)">
<rect width="24" height="24" rx="4" fill="#44AB4A"/>
<path d="M12 5C7.5625 5 4 7.9375 4 11.5C4 13.0625 4.65625 14.4688 5.78125 15.5938C5.375 17.1875 4.0625 18.5625 4.0625 18.5938C4 18.6562 3.96875 18.7812 4 18.875C4.0625 18.9688 4.125 19 4.25 19C6.3125 19 7.875 18.0312 8.625 17.4062C9.65625 17.7812 10.7812 18 12 18C16.4062 18 20 15.0938 20 11.5C20 7.9375 16.4062 5 12 5ZM8 12.5C7.4375 12.5 7 12.0625 7 11.5C7 10.9688 7.4375 10.5 8 10.5C8.53125 10.5 9 10.9688 9 11.5C9 12.0625 8.53125 12.5 8 12.5ZM12 12.5C11.4375 12.5 11 12.0625 11 11.5C11 10.9688 11.4375 10.5 12 10.5C12.5312 10.5 13 10.9688 13 11.5C13 12.0625 12.5312 12.5 12 12.5ZM16 12.5C15.4375 12.5 15 12.0625 15 11.5C15 10.9688 15.4375 10.5 16 10.5C16.5312 10.5 17 10.9688 17 11.5C17 12.0625 16.5312 12.5 16 12.5Z" fill="white"/>
</g>
<defs>
<clipPath id="clip0_5263_357">
<rect width="24" height="24" rx="4" fill="white"/>
</clipPath>
</defs>
</svg>
