<svg width="24" height="24" viewBox="0 0 24 24" fill="none" xmlns="http://www.w3.org/2000/svg">
<path fill-rule="evenodd" clip-rule="evenodd" d="M6.10989 15.1461V16.0359H4.44962V14.2563H5.28022C5.73755 14.2563 6.10989 14.6547 6.10989 15.1461ZM6.10989 8.44925C6.10989 8.9406 5.73755 9.339 5.28022 9.339H4.44962V7.56519H6.10989V8.44925ZM16.892 8.44925V7.56519H18.5504V9.339H17.7216C17.2643 9.339 16.892 8.9406 16.892 8.44925ZM5.28022 12.6912H4.44962V10.9041H5.28022C6.53674 10.9041 7.55859 9.80285 7.55859 8.44925V7.56519H15.4414V8.44925C15.4414 9.80285 16.4642 10.9041 17.7216 10.9041H18.5504V12.6912H17.7216C16.4642 12.6912 15.4414 13.7925 15.4414 15.1461V16.0359H7.55859V15.1461C7.55859 13.7925 6.53674 12.6912 5.28022 12.6912ZM16.892 15.1461C16.892 14.6547 17.2643 14.2563 17.7216 14.2563H18.5504V16.0359H16.892V15.1461ZM18.4977 6H4.50228C3.67353 6 3 6.7266 3 7.6192V15.9817C3 16.8743 3.67353 17.6 4.50228 17.6H18.4977C19.3265 17.6 20 16.8743 20 15.9817V7.6192C20 6.7266 19.3265 6 18.4977 6Z" fill="#959494"/>
<path fill-rule="evenodd" clip-rule="evenodd" d="M10.2506 11.4996C10.2506 10.8106 10.8114 10.2498 11.5004 10.2498C12.1893 10.2498 12.7502 10.8106 12.7502 11.4996C12.7502 12.1885 12.1893 12.7494 11.5004 12.7494C10.8114 12.7494 10.2506 12.1885 10.2506 11.4996ZM11.5004 13.9992C12.8783 13.9992 14 12.8783 14 11.4996C14 10.1209 12.8783 9 11.5004 9C10.1217 9 9 10.1209 9 11.4996C9 12.8783 10.1217 13.9992 11.5004 13.9992Z" fill="#959494"/>
</svg>
