<svg width="24" height="24" viewBox="0 0 24 24" fill="none" xmlns="http://www.w3.org/2000/svg">
<path fill-rule="evenodd" clip-rule="evenodd" d="M17.5263 17.2419C17.5263 18.3272 16.6432 19.2103 15.5579 19.2103H8.4C7.31468 19.2103 6.43158 18.3272 6.43158 17.2419V8.29453C6.43158 7.20922 7.31468 6.32611 8.4 6.32611H15.5579C16.6432 6.32611 17.5263 7.20922 17.5263 8.29453V17.2419ZM15.5579 4.89453H8.4C6.52463 4.89453 5 6.41916 5 8.29453V17.2419C5 19.1173 6.52463 20.6419 8.4 20.6419H15.5579C17.4333 20.6419 18.9579 19.1173 18.9579 17.2419V8.29453C18.9579 6.41916 17.4333 4.89453 15.5579 4.89453Z" fill="#959494"/>
<path fill-rule="evenodd" clip-rule="evenodd" d="M15.1306 9.62755H8.82715V8.37134H15.1306V9.62755ZM8.82715 13.3962H15.1306V12.14H8.82715V13.3962ZM8.82715 17.1657H15.1306V15.9095H8.82715V17.1657Z" fill="#959494"/>
</svg>
