<svg width="24" height="24" viewBox="0 0 24 24" fill="none" xmlns="http://www.w3.org/2000/svg">
<g clip-path="url(#clip0_5263_354)">
<path d="M18.8235 0H5.17647C2.31863 0 0 2.31863 0 5.17647V18.8235C0 21.6814 2.31863 24 5.17647 24H18.8235C21.6814 24 24 21.6814 24 18.8235V5.17647C24 2.31863 21.6814 0 18.8235 0Z" fill="#EE0033"/>
<path d="M18.9438 5.226L15.8995 4.52256C15.5775 4.43463 15.2263 4.61049 15.0799 4.9329L13.6748 8.21563C13.5577 8.50873 13.6456 8.83114 13.8797 9.03631L15.6653 10.5018C14.6115 12.7294 12.7674 14.6052 10.4842 15.6897L9.02055 13.9018C8.81565 13.6673 8.49365 13.5794 8.20093 13.6966L4.92244 15.1035C4.60045 15.25 4.45409 15.6018 4.51263 15.9242L5.21516 18.9724C5.30298 19.2948 5.56643 19.5 5.9177 19.5C13.4114 19.5 19.5 13.4328 19.5 5.90013C19.5 5.57772 19.2658 5.31393 18.9438 5.226Z" fill="white"/>
</g>
<defs>
<clipPath id="clip0_5263_354">
<rect width="24" height="24" fill="white"/>
</clipPath>
</defs>
</svg>
