<svg width="24" height="24" viewBox="0 0 24 24" fill="none" xmlns="http://www.w3.org/2000/svg">
<path fill-rule="evenodd" clip-rule="evenodd" d="M12.0001 7.43359C11.5265 7.43359 11.1433 7.81759 11.1433 8.29039V11.1472H8.28729C7.81369 11.1472 7.42969 11.5304 7.42969 12.004C7.42969 12.4776 7.81369 12.8608 8.28729 12.8608H12.0001C12.4737 12.8608 12.8569 12.4776 12.8569 12.004V8.29039C12.8569 7.81759 12.4737 7.43359 12.0001 7.43359Z" fill="#959494"/>
<path fill-rule="evenodd" clip-rule="evenodd" d="M12 18.2856C8.5344 18.2856 5.7144 15.4656 5.7144 12C5.7144 8.5336 8.5344 5.7144 12 5.7144C15.4656 5.7144 18.2856 8.5336 18.2856 12C18.2856 15.4656 15.4656 18.2856 12 18.2856ZM12 4C7.5888 4 4 7.5888 4 12C4 16.4112 7.5888 20 12 20C16.4112 20 20 16.4112 20 12C20 7.5888 16.4112 4 12 4Z" fill="#959494"/>
</svg>
