<svg width="24" height="24" viewBox="0 0 24 24" fill="none" xmlns="http://www.w3.org/2000/svg">
<path fill-rule="evenodd" clip-rule="evenodd" d="M8.30206 7.89381C8.30206 10.0885 9.97633 11.7876 12.0692 11.7876C14.162 11.7876 15.906 10.0885 15.906 7.89381C15.906 5.69912 14.162 4 12.0692 4C9.97633 4 8.30206 5.69912 8.30206 7.89381ZM9.20905 7.8939C9.20905 6.33638 10.4647 4.99125 12.0692 4.99125C13.6737 4.99125 14.9992 6.33638 14.9992 7.8939C14.9992 9.45143 13.6737 10.7966 12.0692 10.7966C10.5345 10.7966 9.20905 9.45143 9.20905 7.8939Z" fill="#959494"/>
<path d="M12.0692 11.5376C10.1208 11.5376 8.55206 9.95694 8.55206 7.89381H8.05206C8.05206 10.22 9.83182 12.0376 12.0692 12.0376V11.5376ZM15.656 7.89381C15.656 9.95093 14.0234 11.5376 12.0692 11.5376V12.0376C14.3006 12.0376 16.156 10.2261 16.156 7.89381H15.656ZM12.0692 4.25C14.0234 4.25 15.656 5.83668 15.656 7.89381H16.156C16.156 5.56155 14.3006 3.75 12.0692 3.75V4.25ZM8.55206 7.89381C8.55206 5.83067 10.1208 4.25 12.0692 4.25V3.75C9.83182 3.75 8.05206 5.56756 8.05206 7.89381H8.55206ZM12.0692 4.74125C10.3193 4.74125 8.95905 6.2058 8.95905 7.8939H9.45905C9.45905 6.46696 10.6102 5.24125 12.0692 5.24125V4.74125ZM15.2492 7.8939C15.2492 6.19789 13.8114 4.74125 12.0692 4.74125V5.24125C13.5361 5.24125 14.7492 6.47488 14.7492 7.8939H15.2492ZM12.0692 11.0466C13.8114 11.0466 15.2492 9.58992 15.2492 7.8939H14.7492C14.7492 9.31293 13.5361 10.5466 12.0692 10.5466V11.0466ZM8.95905 7.8939C8.95905 9.58601 10.393 11.0466 12.0692 11.0466V10.5466C10.676 10.5466 9.45905 9.31684 9.45905 7.8939H8.95905Z" fill="#959494"/>
<path fill-rule="evenodd" clip-rule="evenodd" d="M8.09283 19.5049C9.13924 19.7881 10.5345 20.0005 12.0692 20.0005C14.8596 20.0005 18.0686 19.3633 17.9989 17.5934C17.9989 14.6908 15.2782 12.3545 11.9994 12.3545C8.72068 12.3545 6 14.6908 6 17.5934C6 18.1598 6.41857 18.9386 8.09283 19.5049ZM6.90698 17.5935C6.90698 15.1864 9.20909 13.2749 12.0693 13.2749C14.8597 13.2749 17.1618 15.2572 17.2316 17.5935C17.2316 18.3015 15.2783 19.0803 12.0693 19.0803C8.86029 19.0803 6.90698 18.3015 6.90698 17.5935Z" fill="#959494"/>
<path d="M8.09283 19.5049L8.01272 19.7418L8.02005 19.7442L8.02752 19.7463L8.09283 19.5049ZM17.9989 17.5934H17.7487L17.7491 17.6033L17.9989 17.5934ZM17.2316 17.5935H17.4817L17.4815 17.5861L17.2316 17.5935ZM12.0692 19.7505C10.5561 19.7505 9.1829 19.5409 8.15814 19.2636L8.02752 19.7463C9.09558 20.0353 10.5128 20.2505 12.0692 20.2505V19.7505ZM17.7491 17.6033C17.7631 17.9584 17.6169 18.2629 17.3247 18.5324C17.0264 18.8075 16.5817 19.0389 16.0276 19.2235C14.9208 19.5922 13.4507 19.7505 12.0692 19.7505V20.2505C13.4781 20.2505 15.0078 20.0902 16.1856 19.6979C16.7738 19.5019 17.2927 19.2422 17.6637 18.9C18.0408 18.5522 18.2696 18.1135 18.2487 17.5836L17.7491 17.6033ZM11.9994 12.6045C15.1743 12.6045 17.7489 14.8607 17.7489 17.5934H18.2489C18.2489 14.5208 15.3821 12.1045 11.9994 12.1045V12.6045ZM6.25 17.5934C6.25 14.8607 8.82455 12.6045 11.9994 12.6045V12.1045C8.6168 12.1045 5.75 14.5208 5.75 17.5934H6.25ZM8.17294 19.2681C6.54586 18.7177 6.25 18.0047 6.25 17.5934H5.75C5.75 18.3149 6.29128 19.1594 8.01272 19.7418L8.17294 19.2681ZM12.0693 13.0249C9.11524 13.0249 6.65698 15.008 6.65698 17.5935H7.15698C7.15698 15.3649 9.30294 13.5249 12.0693 13.5249V13.0249ZM17.4815 17.5861C17.4068 15.0836 14.9615 13.0249 12.0693 13.0249V13.5249C14.7579 13.5249 16.9169 15.4309 16.9817 17.601L17.4815 17.5861ZM12.0693 19.3303C13.6914 19.3303 15.009 19.1337 15.9297 18.8406C16.3886 18.6945 16.7614 18.5205 17.0249 18.3255C17.2804 18.1365 17.4816 17.8901 17.4816 17.5935H16.9816C16.9816 17.6509 16.9386 17.7674 16.7276 17.9235C16.5246 18.0737 16.2085 18.2271 15.778 18.3642C14.9197 18.6374 13.6561 18.8303 12.0693 18.8303V19.3303ZM6.65698 17.5935C6.65698 17.8901 6.85816 18.1365 7.11364 18.3255C7.37721 18.5205 7.74999 18.6945 8.20892 18.8406C9.12956 19.1337 10.4471 19.3303 12.0693 19.3303V18.8303C10.4824 18.8303 9.21886 18.6374 8.36061 18.3642C7.93008 18.2271 7.61398 18.0737 7.41101 17.9235C7.19997 17.7674 7.15698 17.6509 7.15698 17.5935H6.65698Z" fill="#959494"/>
</svg>
