<svg width="24" height="24" viewBox="0 0 24 24" fill="none" xmlns="http://www.w3.org/2000/svg">
<mask id="mask0_1187_1848" style="mask-type:alpha" maskUnits="userSpaceOnUse" x="4" y="5" width="24" height="24">
<path fill-rule="evenodd" clip-rule="evenodd" d="M4 5H19.4999V19.3617H4V5Z" fill="white"/>
</mask>
<g mask="url(#mask0_1187_1848)">
<path fill-rule="evenodd" clip-rule="evenodd" d="M16.9981 10.433L17.9511 17.912H5.54906L6.50106 10.433H16.9981ZM11.7501 6.451C12.4481 6.451 13.0161 7.018 13.0161 7.717C13.0161 8.412 12.4491 8.98 11.7461 8.982C11.0501 8.98 10.4831 8.412 10.4831 7.717C10.4831 7.018 11.0521 6.451 11.7501 6.451ZM18.3561 9.616C18.3101 9.255 18.0011 8.982 17.6371 8.982H14.1441C14.3561 8.591 14.4671 8.161 14.4671 7.717C14.4671 6.219 13.2481 5 11.7501 5C10.2521 5 9.03306 6.219 9.03306 7.717C9.03306 8.161 9.14406 8.591 9.35506 8.982H5.86306C5.50006 8.982 5.19006 9.254 5.14406 9.616L4.00606 18.544C3.97906 18.753 4.04306 18.962 4.18206 19.119C4.32106 19.273 4.51906 19.362 4.72506 19.362H18.7741C18.9831 19.362 19.1821 19.272 19.3221 19.114C19.4581 18.955 19.5201 18.748 19.4941 18.545L18.3561 9.616Z" fill="#959494"/>
</g>
</svg>
